<?xml version="1.0" encoding="iso-8859-1"?>
<!-- Uploaded to: SVG Repo, www.svgrepo.com, Generator: SVG Repo Mixer Tools -->
<svg height="800px" width="800px" version="1.1" id="Layer_1" xmlns="http://www.w3.org/2000/svg" xmlns:xlink="http://www.w3.org/1999/xlink" 
	 viewBox="0 0 511.998 511.998" xml:space="preserve">
<path style="fill:#FF3F62;" d="M511.744,252.725c-0.06-0.427-0.112-0.856-0.195-1.275c-0.074-0.379-0.18-0.749-0.275-1.125
	c-0.092-0.361-0.171-0.729-0.279-1.085c-0.112-0.366-0.251-0.726-0.382-1.089c-0.127-0.355-0.244-0.714-0.388-1.06
	c-0.14-0.337-0.306-0.666-0.462-0.998c-0.168-0.357-0.329-0.718-0.514-1.066c-0.169-0.318-0.366-0.624-0.552-0.936
	c-0.203-0.34-0.397-0.687-0.616-1.015c-0.231-0.348-0.493-0.678-0.745-1.015c-0.203-0.272-0.394-0.552-0.61-0.813
	c-0.487-0.596-1.002-1.168-1.545-1.711l-85.327-85.329c-9.086-9.089-23.822-9.089-32.912-0.002c-9.089,9.089-9.089,23.824,0,32.912
	l16.457,16.457l29.145,29.15h-29.147H279.273V108.605V79.458l29.147,29.147l16.457,16.457c4.544,4.544,10.501,6.816,16.455,6.816
	s11.913-2.271,16.455-6.816c9.089-9.089,9.089-23.824,0-32.912L272.458,6.821l-0.003-0.003c-0.54-0.538-1.102-1.047-1.685-1.527
	c-0.155-0.126-0.321-0.234-0.479-0.357c-0.442-0.346-0.886-0.69-1.351-1.002c-0.146-0.098-0.299-0.178-0.448-0.272
	c-0.493-0.315-0.993-0.627-1.51-0.903c-0.109-0.059-0.225-0.104-0.334-0.161c-0.566-0.292-1.139-0.571-1.727-0.816
	c-0.079-0.031-0.161-0.056-0.237-0.087c-0.625-0.251-1.258-0.484-1.902-0.681c-0.085-0.026-0.174-0.04-0.259-0.067
	c-0.641-0.188-1.286-0.357-1.942-0.489c-0.199-0.039-0.402-0.057-0.602-0.092c-0.549-0.096-1.098-0.191-1.655-0.247
	C257.559,0.042,256.785,0,256,0c-0.784,0-1.559,0.042-2.323,0.118c-0.566,0.057-1.128,0.154-1.685,0.251
	c-0.191,0.033-0.385,0.05-0.573,0.087c-0.667,0.133-1.325,0.306-1.975,0.496c-0.073,0.022-0.152,0.036-0.225,0.059
	c-0.658,0.2-1.303,0.438-1.939,0.694c-0.065,0.026-0.135,0.047-0.2,0.073c-0.6,0.25-1.184,0.534-1.761,0.832
	c-0.098,0.051-0.203,0.093-0.299,0.144c-0.529,0.282-1.038,0.6-1.542,0.923c-0.137,0.087-0.282,0.163-0.416,0.253
	c-0.481,0.321-0.939,0.675-1.393,1.032c-0.143,0.112-0.296,0.211-0.436,0.327c-0.585,0.479-1.148,0.988-1.688,1.528l-0.003,0.003
	l-85.327,85.329c-9.089,9.089-9.089,23.824,0,32.912c9.087,9.087,23.824,9.087,32.912,0l16.455-16.457l29.145-29.145v29.147v124.121
	H108.606H79.458l29.148-29.148l16.455-16.457c9.089-9.087,9.089-23.824,0-32.912c-9.087-9.089-23.824-9.089-32.912,0L6.82,239.54
	c-0.543,0.543-1.058,1.116-1.545,1.711c-0.217,0.264-0.41,0.548-0.616,0.821c-0.248,0.334-0.509,0.663-0.739,1.005
	c-0.222,0.33-0.416,0.681-0.621,1.022c-0.185,0.309-0.379,0.614-0.548,0.929c-0.186,0.349-0.348,0.712-0.515,1.071
	c-0.157,0.33-0.321,0.656-0.461,0.991c-0.146,0.348-0.262,0.709-0.391,1.064c-0.127,0.36-0.268,0.718-0.379,1.083
	c-0.107,0.357-0.188,0.725-0.279,1.088c-0.095,0.374-0.2,0.745-0.275,1.12c-0.084,0.419-0.135,0.85-0.195,1.277
	c-0.045,0.326-0.107,0.647-0.14,0.974C0.04,254.456,0,255.223,0,256c0,0.777,0.04,1.544,0.116,2.299
	c0.033,0.326,0.095,0.649,0.14,0.974c0.061,0.427,0.112,0.858,0.195,1.277c0.074,0.377,0.18,0.746,0.275,1.12
	c0.092,0.363,0.171,0.731,0.279,1.088c0.11,0.365,0.251,0.723,0.379,1.083c0.129,0.355,0.245,0.717,0.391,1.064
	c0.14,0.335,0.304,0.661,0.461,0.991c0.168,0.358,0.329,0.723,0.515,1.071c0.169,0.315,0.363,0.619,0.548,0.929
	c0.206,0.343,0.4,0.692,0.621,1.022c0.23,0.343,0.49,0.672,0.739,1.005c0.206,0.273,0.399,0.557,0.616,0.821
	c0.489,0.594,1.002,1.168,1.545,1.711l85.33,85.329c4.544,4.549,10.501,6.82,16.457,6.82s11.913-2.271,16.455-6.817
	c9.089-9.087,9.089-23.824,0-32.912l-16.455-16.455l-29.148-29.148h29.148h124.121v124.121v29.147l-29.145-29.147l-16.455-16.455
	c-9.087-9.09-23.824-9.087-32.912,0c-9.089,9.089-9.089,23.824,0,32.912l85.327,85.329l0.003,0.003
	c0.54,0.54,1.103,1.049,1.688,1.528c0.14,0.116,0.293,0.214,0.436,0.326c0.456,0.357,0.914,0.712,1.393,1.032
	c0.133,0.09,0.279,0.164,0.416,0.253c0.504,0.323,1.013,0.641,1.542,0.923c0.098,0.053,0.202,0.093,0.299,0.144
	c0.577,0.298,1.161,0.582,1.761,0.832c0.065,0.028,0.135,0.047,0.2,0.073c0.636,0.256,1.282,0.493,1.939,0.694
	c0.073,0.023,0.152,0.036,0.225,0.059c0.652,0.191,1.309,0.362,1.975,0.497c0.188,0.037,0.382,0.054,0.573,0.087
	c0.557,0.098,1.119,0.194,1.685,0.251c0.763,0.076,1.539,0.118,2.323,0.118c0.784,0,1.559-0.042,2.323-0.118
	c0.566-0.057,1.128-0.154,1.685-0.251c0.191-0.033,0.385-0.05,0.573-0.087c0.667-0.133,1.325-0.306,1.975-0.497
	c0.073-0.022,0.152-0.036,0.225-0.059c0.658-0.2,1.303-0.438,1.939-0.694c0.065-0.026,0.135-0.047,0.2-0.073
	c0.6-0.25,1.184-0.534,1.761-0.832c0.098-0.051,0.203-0.093,0.299-0.144c0.529-0.282,1.038-0.6,1.542-0.923
	c0.137-0.087,0.282-0.161,0.416-0.253c0.481-0.32,0.939-0.675,1.393-1.032c0.143-0.112,0.296-0.211,0.436-0.326
	c0.585-0.479,1.148-0.988,1.688-1.528l0.003-0.003l85.33-85.329c9.089-9.089,9.089-23.824,0-32.912
	c-9.086-9.089-23.822-9.089-32.912,0l-16.457,16.455l-29.147,29.148v-29.148V279.273h124.124h29.147l-29.147,29.148l-16.457,16.457
	c-9.089,9.089-9.089,23.824,0,32.912c4.544,4.544,10.501,6.816,16.457,6.816c5.956,0,11.913-2.273,16.455-6.817l85.327-85.329
	c0.543-0.543,1.058-1.116,1.545-1.711c0.216-0.261,0.406-0.541,0.61-0.813c0.251-0.337,0.514-0.667,0.745-1.015
	c0.22-0.327,0.414-0.675,0.616-1.015c0.186-0.312,0.383-0.617,0.552-0.936c0.185-0.348,0.346-0.707,0.514-1.066
	c0.157-0.332,0.323-0.661,0.462-0.998c0.144-0.346,0.261-0.706,0.388-1.06c0.13-0.362,0.27-0.721,0.382-1.089
	c0.107-0.355,0.188-0.721,0.279-1.085c0.095-0.374,0.2-0.746,0.275-1.125c0.084-0.419,0.135-0.849,0.195-1.275
	c0.045-0.324,0.107-0.649,0.14-0.976c0.076-0.757,0.116-1.524,0.116-2.299s-0.04-1.544-0.116-2.299
	C511.851,253.373,511.789,253.049,511.744,252.725z"/>
<path style="fill:#FF0C38;" d="M253.677,0.118c-0.566,0.057-1.128,0.154-1.685,0.251c-0.191,0.033-0.385,0.05-0.573,0.087
	c-0.667,0.133-1.325,0.306-1.975,0.496c-0.073,0.022-0.152,0.036-0.225,0.059c-0.658,0.2-1.303,0.438-1.939,0.694
	c-0.065,0.026-0.135,0.047-0.2,0.073c-0.6,0.25-1.184,0.534-1.761,0.832c-0.098,0.051-0.203,0.093-0.299,0.144
	c-0.529,0.282-1.038,0.6-1.542,0.923c-0.137,0.087-0.282,0.161-0.416,0.253c-0.481,0.32-0.937,0.675-1.393,1.032
	c-0.143,0.112-0.296,0.211-0.436,0.327c-0.585,0.479-1.148,0.988-1.688,1.528l-0.003,0.003l-85.327,85.329
	c-9.089,9.089-9.089,23.824,0,32.912c9.087,9.087,23.824,9.087,32.912,0l16.455-16.455l29.145-29.147v29.147v124.121H108.606H79.458
	l29.148-29.148l16.455-16.457c9.089-9.087,9.089-23.824,0-32.912c-9.087-9.089-23.824-9.089-32.912,0L6.82,239.54
	c-0.543,0.543-1.058,1.116-1.545,1.711c-0.217,0.264-0.41,0.548-0.614,0.821c-0.248,0.334-0.509,0.663-0.74,1.005
	c-0.222,0.33-0.416,0.68-0.621,1.022c-0.185,0.309-0.379,0.614-0.549,0.929c-0.186,0.349-0.348,0.712-0.515,1.071
	c-0.157,0.33-0.321,0.656-0.461,0.991c-0.146,0.348-0.262,0.709-0.391,1.064c-0.127,0.36-0.268,0.718-0.379,1.083
	c-0.107,0.357-0.188,0.725-0.279,1.088c-0.095,0.374-0.2,0.743-0.275,1.12c-0.084,0.42-0.135,0.85-0.195,1.277
	c-0.045,0.324-0.107,0.647-0.14,0.974C0.04,254.456,0,255.224,0,256c0,0.776,0.04,1.544,0.116,2.299
	c0.033,0.327,0.095,0.65,0.14,0.974c0.061,0.427,0.112,0.858,0.195,1.277c0.074,0.377,0.18,0.746,0.275,1.12
	c0.092,0.363,0.171,0.731,0.279,1.088c0.11,0.365,0.251,0.723,0.379,1.083c0.129,0.355,0.245,0.717,0.391,1.066
	c0.14,0.335,0.304,0.661,0.461,0.991c0.168,0.358,0.329,0.723,0.515,1.071c0.169,0.315,0.363,0.619,0.549,0.929
	c0.206,0.343,0.4,0.692,0.621,1.022c0.23,0.343,0.49,0.672,0.74,1.005c0.206,0.273,0.399,0.557,0.614,0.821
	c0.487,0.594,1.002,1.168,1.545,1.711l85.33,85.329c4.543,4.547,10.499,6.819,16.455,6.819s11.913-2.271,16.455-6.817
	c9.089-9.087,9.089-23.824,0-32.912l-16.455-16.455l-29.148-29.148h29.148h124.121v124.121v29.147l-29.145-29.147l-16.455-16.457
	c-9.087-9.09-23.824-9.087-32.912,0c-9.089,9.089-9.089,23.824,0,32.912l85.327,85.329l0.003,0.003
	c0.54,0.54,1.103,1.049,1.688,1.528c0.14,0.116,0.293,0.214,0.436,0.326c0.456,0.357,0.914,0.712,1.393,1.032
	c0.133,0.09,0.279,0.164,0.416,0.253c0.504,0.323,1.013,0.641,1.542,0.923c0.098,0.053,0.202,0.093,0.299,0.144
	c0.577,0.298,1.161,0.582,1.761,0.832c0.065,0.028,0.135,0.047,0.2,0.073c0.636,0.258,1.282,0.493,1.939,0.694
	c0.073,0.023,0.152,0.036,0.225,0.059c0.652,0.191,1.309,0.362,1.975,0.496c0.188,0.037,0.382,0.054,0.573,0.087
	c0.557,0.098,1.119,0.194,1.685,0.251c0.763,0.076,1.539,0.118,2.323,0.118V0C255.216,0,254.441,0.042,253.677,0.118z"/>
</svg>