<svg width="102" height="16" viewBox="0 0 102 16" fill="none" xmlns="http://www.w3.org/2000/svg">
<path d="M28.3788 3.029H35.7238V3.9H28.3788V3.029ZM27.0528 8.073H37.6738V8.957H27.0528V8.073ZM31.7978 8.658H32.8768V14.027H31.7978V8.658ZM35.2168 3.029H36.2698V4.043C36.2698 5.265 36.2698 6.643 35.8278 8.632L34.7618 8.489C35.2168 6.591 35.2168 5.226 35.2168 4.043V3.029ZM40.3638 2.756H47.9298V3.627H40.3638V2.756ZM39.0118 6.63H49.6588V7.514H39.0118V6.63ZM47.2278 2.756H48.2808V3.51C48.2808 4.355 48.2808 5.447 47.9688 6.903L46.9158 6.786C47.2278 5.356 47.2278 4.342 47.2278 3.51V2.756ZM40.2598 8.671H48.3198V11.661H41.3648V13.299H40.2858V10.829H47.2538V9.542H40.2598V8.671ZM40.2858 13.013H48.6188V13.884H40.2858V13.013ZM50.9708 11.674H61.6178V12.571H50.9708V11.674ZM55.7288 9.152H56.8078V12.051H55.7288V9.152ZM52.2578 3.133H60.3048V6.695H53.3628V9.048H52.2968V5.824H59.2388V4.004H52.2578V3.133ZM52.2968 8.593H60.5778V9.477H52.2968V8.593ZM66.3702 11.674H77.0172V12.571H66.3702V11.674ZM71.1282 9.152H72.2072V12.051H71.1282V9.152ZM67.6572 3.133H75.7042V6.695H68.7622V9.048H67.6962V5.824H74.6382V4.004H67.6572V3.133ZM67.6962 8.593H75.9772V9.477H67.6962V8.593ZM79.4732 3.51H87.0392V4.381H79.4732V3.51ZM78.3292 11.401H88.9502V12.298H78.3292V11.401ZM86.4672 3.51H87.5202V4.68C87.5202 6.188 87.5202 7.865 87.0782 10.4L85.9992 10.296C86.4672 7.891 86.4672 6.136 86.4672 4.68V3.51ZM98.8292 2.275H99.9212V10.855H98.8292V2.275ZM92.3682 12.87H100.272V13.754H92.3682V12.87ZM92.3682 9.971H93.4342V13.169H92.3682V9.971ZM93.6162 3.081C95.3712 3.081 96.6712 4.277 96.6712 5.98C96.6712 7.67 95.3712 8.879 93.6162 8.879C91.8612 8.879 90.5482 7.67 90.5482 5.98C90.5482 4.277 91.8612 3.081 93.6162 3.081ZM93.6162 4.017C92.4722 4.017 91.6012 4.823 91.6012 5.98C91.6012 7.124 92.4722 7.93 93.6162 7.93C94.7602 7.93 95.6312 7.124 95.6312 5.98C95.6312 4.823 94.7602 4.017 93.6162 4.017Z" fill="black"/>
<path d="M5.57374 0.526248C3.9751 1.08083 2.59642 2.13346 1.64023 3.5295C0.684041 4.92554 0.200732 6.59143 0.261296 8.28245C0.32186 9.97348 0.923104 11.6005 1.97671 12.9246C3.03033 14.2486 4.48077 15.1999 6.11499 15.6387C7.4399 15.9806 8.82801 15.9956 10.16 15.6825C11.3666 15.4115 12.4822 14.8317 13.3975 14C14.3501 13.1079 15.0415 11.9731 15.3975 10.7175C15.7844 9.35208 15.8532 7.91616 15.5987 6.52H8.15874V9.60625H12.4675C12.3814 10.0985 12.1968 10.5683 11.9249 10.9875C11.653 11.4068 11.2993 11.7669 10.885 12.0462C10.3588 12.3943 9.76574 12.6285 9.14374 12.7337C8.51992 12.8497 7.88006 12.8497 7.25624 12.7337C6.62398 12.603 6.02587 12.3421 5.49999 11.9675C4.65518 11.3695 4.02084 10.5199 3.68749 9.54C3.34851 8.54174 3.34851 7.45951 3.68749 6.46125C3.92478 5.76152 4.31704 5.12442 4.83499 4.5975C5.42773 3.98343 6.17816 3.54449 7.00394 3.32884C7.82972 3.11319 8.69894 3.12916 9.51624 3.375C10.1547 3.57099 10.7386 3.91342 11.2212 4.375C11.7071 3.89166 12.1921 3.40708 12.6762 2.92125C12.9262 2.66 13.1987 2.41125 13.445 2.14375C12.7082 1.45809 11.8433 0.924569 10.9 0.573748C9.18212 -0.0500151 7.30247 -0.0667781 5.57374 0.526248Z" fill="white"/>
<path d="M5.57372 0.526245C7.3023 -0.067184 9.18196 -0.0508622 10.9 0.572495C11.8435 0.925699 12.708 1.46179 13.4437 2.14999C13.1937 2.41749 12.93 2.66749 12.675 2.92749C12.19 3.41166 11.7054 3.89416 11.2212 4.37499C10.7385 3.91342 10.1547 3.57098 9.51622 3.37499C8.69919 3.1283 7.82999 3.1114 7.00399 3.32617C6.178 3.54094 5.42711 3.97907 4.83372 4.59249C4.31576 5.11941 3.9235 5.75652 3.68622 6.45624L1.09497 4.44999C2.02248 2.6107 3.62841 1.20377 5.57372 0.526245Z" fill="#E33629"/>
<path d="M0.407499 6.43751C0.546775 5.74725 0.778003 5.0788 1.095 4.45001L3.68625 6.46126C3.34727 7.45952 3.34727 8.54175 3.68625 9.54001C2.82292 10.2067 1.95917 10.8767 1.095 11.55C0.301437 9.97041 0.0594147 8.17064 0.407499 6.43751Z" fill="#F8BD00"/>
<path d="M8.15876 6.51874H15.5988C15.8533 7.9149 15.7844 9.35082 15.3975 10.7162C15.0416 11.9718 14.3501 13.1067 13.3975 13.9987C12.5613 13.3462 11.7213 12.6987 10.885 12.0462C11.2996 11.7666 11.6535 11.4061 11.9254 10.9864C12.1973 10.5667 12.3817 10.0964 12.4675 9.60374H8.15876C8.15751 8.57624 8.15876 7.54749 8.15876 6.51874Z" fill="#587DBD"/>
<path d="M1.09375 11.55C1.95792 10.8833 2.82167 10.2133 3.685 9.53998C4.01901 10.5202 4.65426 11.3698 5.5 11.9675C6.02751 12.3403 6.62691 12.5991 7.26 12.7275C7.88382 12.8435 8.52368 12.8435 9.1475 12.7275C9.76949 12.6222 10.3626 12.388 10.8888 12.04C11.725 12.6925 12.565 13.34 13.4012 13.9925C12.4861 14.8246 11.3705 15.4048 10.1637 15.6762C8.83176 15.9894 7.44365 15.9743 6.11875 15.6325C5.07088 15.3527 4.09209 14.8595 3.24375 14.1837C2.34583 13.4708 1.61244 12.5724 1.09375 11.55Z" fill="#319F43"/>
</svg>
