<svg width="38" height="38" viewBox="0 0 38 38" fill="none" xmlns="http://www.w3.org/2000/svg">
<path d="M4.81232 13.588H6.7895V16.53H4.81232V13.588ZM16.9218 13.9234H18.9703V16.6428H16.9218V13.9234Z" fill="#5C6567"/>
<path d="M3.27454 21.8886H34.8591V35.432H3.27454V21.8886Z" fill="#E1E1E1"/>
<path d="M2.06924 36.4325C2.06924 36.6997 2.22064 36.7769 2.71643 36.7769C3.21221 36.7769 35.1797 36.7383 35.4469 36.7383C35.7141 36.7383 35.9813 36.5097 35.9813 36.1653C35.9813 35.8209 36.0703 35.0728 35.9456 34.7641C35.821 34.4553 34.7997 34.0664 34.7997 34.0664H3.17658C3.17658 34.0664 2.31268 34.4998 2.14643 34.8294C1.98018 35.1589 2.06924 36.1267 2.06924 36.4325Z" fill="#9A9A9A"/>
<path d="M13.8166 22.224C13.8166 22.224 13.2733 22.3992 13.2436 22.7495C13.2139 23.0998 13.2436 33.6211 13.2436 33.7962C13.2436 33.9714 13.3327 34.2059 13.6949 34.2059H24.4833C24.6644 34.2059 24.8752 34.0308 24.8752 33.8259V22.7198C24.8752 22.4853 24.513 22.2508 24.3022 22.224C24.0944 22.1973 13.8166 22.224 13.8166 22.224Z" fill="#00C1EC"/>
<path d="M13.2139 28.2833H24.9078V29.3995H13.2139V28.2833Z" fill="#178BFD"/>
<path d="M13.2139 27.3808H24.9049V28.3753H13.2139V27.3808Z" fill="#00AA46"/>
<path d="M18.5784 22.1944H19.662V34.2089H18.5784V22.1944Z" fill="#B0E4FF"/>
<path d="M19.2197 17.7294L1.78717 21.4017C1.78717 21.4017 1.84655 22.1112 2.30967 22.3547C2.56795 22.4912 3.27155 22.4497 3.27155 22.4497H35.6873C35.904 22.4497 36.189 22.2062 36.2158 21.8945C36.2425 21.5828 36.2158 21.2711 36.2158 21.2711L19.2197 17.7294Z" fill="#016DA7"/>
<path d="M1.78717 21.4047L1.77826 20.0301L2.52342 18.9406L36.2365 20.1756L36.2306 21.3898C36.2306 21.3898 1.84951 21.3394 1.78717 21.4047Z" fill="#178BFD"/>
<path d="M1.77826 20.0302V18.0352L18.2044 16.9664L36.2514 18.0352L36.2365 20.1727C36.2365 20.1756 1.80201 20.0539 1.77826 20.0302Z" fill="#E1E1E1"/>
<path d="M1.77826 18.0351V16.8714C1.77826 16.4706 1.96529 16.0698 2.57982 16.0698H35.4261C35.8506 16.0698 36.2722 16.2836 36.2722 16.6606C36.2722 17.0376 36.2514 18.0351 36.2514 18.0351H1.77826Z" fill="#02AB46"/>
<path d="M3.29531 1.27064L20.2142 1.2558C20.618 1.2558 20.9475 1.58236 20.9475 1.98908V13.8047C20.9475 14.3035 20.5437 14.7042 20.048 14.7042H3.40515C2.98656 14.7042 2.64812 14.3688 2.64218 13.9531L2.59765 1.9772C2.59647 1.88484 2.61365 1.79316 2.64818 1.70749C2.68271 1.62181 2.73391 1.54385 2.79882 1.47812C2.86372 1.41239 2.94102 1.3602 3.02625 1.32459C3.11148 1.28897 3.20294 1.27063 3.29531 1.27064Z" fill="#ED6D30"/>
<path d="M6.52827 6.39763C6.75687 6.29372 7.31499 5.37935 8.01265 5.43278C8.7103 5.48622 8.72218 6.4006 8.13734 7.16653C7.56437 7.91763 7.02999 8.50841 6.13343 9.72263C5.22202 10.9606 5.22202 12.154 5.38234 12.35C5.54265 12.5459 5.91968 12.5103 6.86671 12.5281C7.81374 12.5459 10.5866 12.5459 10.7112 12.439C10.8359 12.3322 10.7825 11.0437 10.7825 10.8834C10.7825 10.7231 10.5687 10.4529 10.3164 10.4529C10.067 10.4529 8.11655 10.4708 8.11655 10.4708C8.11655 10.4708 8.7103 9.66028 9.33374 8.77263C10.263 7.44857 10.9042 6.2195 10.8003 5.32294C10.6222 3.76732 9.60093 2.94497 7.72468 3.17653C6.10374 3.37841 5.07952 5.12403 5.16859 5.34075C5.34374 5.75935 6.29671 6.5045 6.52827 6.39763Z" fill="white"/>
<path d="M17.9342 8.50843C17.9224 8.34812 17.578 8.34812 17.3078 8.34812C17.0406 8.34812 16.6992 8.3303 16.6992 8.3303C16.6992 8.3303 16.6636 3.50312 16.6636 3.21812C16.6636 2.93312 16.2717 2.73421 15.8056 2.75202C15.3752 2.76984 15.1792 2.75202 14.8408 3.2003C14.5647 3.56249 11.4683 8.35405 11.21 8.74296C10.8716 9.26249 10.548 10.1917 11.495 10.2986C12.4421 10.4055 14.7131 10.2986 14.7131 10.2986V12.1036C14.7131 12.2817 14.7666 12.4242 15.0516 12.4242H16.4291C16.6072 12.4242 16.6963 12.3351 16.6963 11.9759V10.2956C16.6963 10.2956 17.4474 10.3134 17.6611 10.2956C17.8749 10.2778 17.9283 9.95718 17.9283 9.77608C17.9283 9.59499 17.9699 8.95374 17.9342 8.50843ZM13.591 8.4164L14.6983 6.6114C14.6627 6.6114 14.6983 8.38077 14.6983 8.38077L13.591 8.4164Z" fill="white"/>
<path d="M26.4634 23.5392H33.3004V28.7969H26.4634V23.5392ZM4.93701 23.6105H11.7384V28.9038H4.93701V23.6105Z" fill="#A7D0D6"/>
</svg>
